<svg xmlns="http://www.w3.org/2000/svg" viewBox="0 0 128 128">
  <rect width="128" height="128" rx="13" fill="#060d14"/>
  <g transform="translate(15.4,74.2) scale(0.050985,-0.050985)"><path d="M568 -14C616 -14 661 5 682 48L887 473C889 478 895 481 900 481C908 481 916 475 916 463V0H1090V495C1090 571 1067 618 1027 650C997 674 957 691 909 691C823 691 773 640 738 565L585 233C581 223 576 220 568 220C560 220 555 223 551 233L398 565C363 640 313 691 227 691C179 691 139 674 109 650C69 618 46 571 46 495V0H220V463C220 475 228 481 236 481C241 481 247 478 249 473L454 48C475 5 520 -14 568 -14Z" fill="#97D700"/></g><g transform="translate(73.4,74.2) scale(0.050985,-0.050985)"><path d="M41 676V497H442C449 497 453 493 453 488C453 482 450 479 443 475L326 401C299 384 285 369 285 341C285 310 298 282 351 282H487C532 282 548 259 548 228C548 197 532 173 487 173H39V0H541C679 0 757 95 757 200C757 323 685 383 581 394C576 395 574 398 574 402C574 404 575 408 578 410L688 490C721 515 739 540 739 577C739 633 701 676 626 676Z" fill="#97D700"/></g>
</svg>