<svg xmlns="http://www.w3.org/2000/svg" viewBox="0 0 32 32">
  <rect width="32" height="32" rx="4" fill="#060d14"/>
  <g transform="translate(4.00,14.50) scale(0.012579,-0.012579)"><path d="M568 -14C616 -14 661 5 682 48L887 473C889 478 895 481 900 481C908 481 916 475 916 463V0H1090V495C1090 571 1067 618 1027 650C997 674 957 691 909 691C823 691 773 640 738 565L585 233C581 223 576 220 568 220C560 220 555 223 551 233L398 565C363 640 313 691 227 691C179 691 139 674 109 650C69 618 46 571 46 495V0H220V463C220 475 228 481 236 481C241 481 247 478 249 473L454 48C475 5 520 -14 568 -14Z" fill="#97D700"/></g><g transform="translate(18.31,14.50) scale(0.012579,-0.012579)"><path d="M41 676V497H442C449 497 453 493 453 488C453 482 450 479 443 475L326 401C299 384 285 369 285 341C285 310 298 282 351 282H487C532 282 548 259 548 228C548 197 532 173 487 173H39V0H541C679 0 757 95 757 200C757 323 685 383 581 394C576 395 574 398 574 402C574 404 575 408 578 410L688 490C721 515 739 540 739 577C739 633 701 676 626 676Z" fill="#97D700"/></g><line x1="4" y1="17" x2="28" y2="17" stroke="#97D700" stroke-width="0.6" opacity="0.45"/><g transform="translate(5.78,27.50) scale(0.012579,-0.012579)"><path d="M748 178H394C330 178 287 198 258 230C232 258 216 296 216 337C216 382 235 424 266 453C295 480 333 497 394 497H748V676H394C285 676 204 642 144 587C77 525 35 436 35 338C35 249 68 169 122 110C184 42 273 0 394 0H748Z" fill="#97D700"/></g><g transform="translate(15.63,27.50) scale(0.012579,-0.012579)"><path d="M231 240H546C599 240 620 223 620 180V45C620 30 621 15 623 0H806C804 19 803 35 803 64V199C803 276 783 312 738 339C786 374 802 425 802 479C802 530 781 577 748 612C711 651 658 676 575 676H95C65 676 50 662 50 634V0H231ZM231 394V492C231 501 236 507 246 507H551C574 507 590 500 600 489C610 479 615 465 615 451C615 438 610 426 602 416C591 403 576 394 551 394Z" fill="#97D700"/></g>
</svg>